<?xml version="1.0" standalone="no"?><!DOCTYPE svg PUBLIC "-//W3C//DTD SVG 1.1//EN" "http://www.w3.org/Graphics/SVG/1.1/DTD/svg11.dtd"><svg class="icon" height="512" viewBox="0 0 1024 1024" version="1.1" xmlns="http://www.w3.org/2000/svg"><path d="M760.384 520.32c-137.728 0-249.728 112-249.728 249.728 0 137.728 112 249.728 249.728 249.728s249.728-112 249.728-249.728C1010.176 632.384 898.112 520.32 760.384 520.32zM760.384 956.288c-102.656 0-186.24-83.52-186.24-186.24 0-102.656 83.52-186.24 186.24-186.24s186.24 83.52 186.24 186.24C946.624 872.768 863.104 956.288 760.384 956.288zM872.896 738.304l-80.704 0 0-80.704c0-17.536-14.208-31.744-31.744-31.744s-31.744 14.208-31.744 31.744l0 80.704-80.704 0c-17.536 0-31.744 14.208-31.744 31.744s14.208 31.744 31.744 31.744l80.704 0 0 80.704c0 17.536 14.208 31.744 31.744 31.744s31.744-14.208 31.744-31.744l0-80.704 80.704 0c17.536 0 31.744-14.208 31.744-31.744S890.432 738.304 872.896 738.304zM601.408 527.04c-30.08-24.448-64.192-44.032-101.056-57.856 72.896-43.84 121.92-123.456 121.92-214.528 0-138.048-112.32-250.432-250.432-250.432S121.536 116.544 121.536 254.592c0 91.776 49.792 171.968 123.648 215.552-108.352 41.6-191.744 133.824-221.12 248-6.976 27.2-10.432 54.848-10.24 82.944 0.192 26.496 29.44 42.368 51.968 33.344 20.224-8.064 23.232-25.472 24.448-44.928 9.344-148.352 133.056-266.176 283.712-266.176 63.168 0 121.408 20.992 168.64 55.936C559.744 559.296 579.456 541.632 601.408 527.04zM371.968 78.336c97.216 0 176.32 79.104 176.32 176.32S469.184 430.912 371.968 430.912 195.648 351.808 195.648 254.592 274.752 78.336 371.968 78.336z" /></svg>